<mxfile host="app.diagrams.net" agent="Mozilla/5.0 (Windows NT 10.0; Win64; x64) AppleWebKit/537.36 (KHTML, like Gecko) Chrome/133.0.0.0 Safari/537.36 Edg/133.0.0.0" version="26.0.14">
  <diagram name="Página-1" id="Xwsjisw63_c5HKe_UfZp">
    <mxGraphModel dx="1597" dy="361" grid="1" gridSize="10" guides="1" tooltips="1" connect="1" arrows="1" fold="1" page="1" pageScale="1" pageWidth="827" pageHeight="1169" math="0" shadow="0">
      <root>
        <mxCell id="0" />
        <mxCell id="1" parent="0" />
        <mxCell id="Akl5kUOaFdj0CedreOdm-17" style="edgeStyle=orthogonalEdgeStyle;rounded=1;orthogonalLoop=1;jettySize=auto;html=1;strokeColor=default;align=center;verticalAlign=middle;fontFamily=Helvetica;fontSize=11;fontColor=default;labelBackgroundColor=default;startFill=0;endArrow=none;startArrow=none;curved=0;" parent="1" source="Akl5kUOaFdj0CedreOdm-1" target="Akl5kUOaFdj0CedreOdm-13" edge="1">
          <mxGeometry relative="1" as="geometry" />
        </mxCell>
        <mxCell id="Akl5kUOaFdj0CedreOdm-39" value="1,1" style="edgeLabel;html=1;align=center;verticalAlign=bottom;resizable=0;points=[];" parent="Akl5kUOaFdj0CedreOdm-17" vertex="1" connectable="0">
          <mxGeometry x="-0.6833" y="1" relative="1" as="geometry">
            <mxPoint as="offset" />
          </mxGeometry>
        </mxCell>
        <mxCell id="Akl5kUOaFdj0CedreOdm-21" style="edgeStyle=orthogonalEdgeStyle;rounded=1;orthogonalLoop=1;jettySize=auto;html=1;entryX=1;entryY=0.5;entryDx=0;entryDy=0;strokeColor=default;align=center;verticalAlign=middle;fontFamily=Helvetica;fontSize=11;fontColor=default;labelBackgroundColor=default;startFill=0;endArrow=none;startArrow=none;curved=0;" parent="1" source="Akl5kUOaFdj0CedreOdm-1" target="Akl5kUOaFdj0CedreOdm-19" edge="1">
          <mxGeometry relative="1" as="geometry" />
        </mxCell>
        <mxCell id="Akl5kUOaFdj0CedreOdm-38" value="1,1" style="edgeLabel;html=1;align=center;verticalAlign=bottom;resizable=0;points=[];fontColor=light-dark(#000000,#00FF00);" parent="Akl5kUOaFdj0CedreOdm-21" vertex="1" connectable="0">
          <mxGeometry x="-0.7704" y="-1" relative="1" as="geometry">
            <mxPoint x="-10" y="1" as="offset" />
          </mxGeometry>
        </mxCell>
        <mxCell id="Akl5kUOaFdj0CedreOdm-24" style="edgeStyle=orthogonalEdgeStyle;rounded=1;orthogonalLoop=1;jettySize=auto;html=1;entryX=0.5;entryY=0;entryDx=0;entryDy=0;strokeColor=default;align=center;verticalAlign=middle;fontFamily=Helvetica;fontSize=11;fontColor=default;labelBackgroundColor=default;startFill=0;endArrow=none;startArrow=none;curved=0;" parent="1" source="Akl5kUOaFdj0CedreOdm-1" target="vYs6L4ZBaPOAPjuSLBWF-12" edge="1">
          <mxGeometry relative="1" as="geometry">
            <mxPoint x="225" y="465.0000000000001" as="targetPoint" />
            <Array as="points">
              <mxPoint x="225" y="530" />
              <mxPoint x="225" y="530" />
            </Array>
          </mxGeometry>
        </mxCell>
        <mxCell id="vYs6L4ZBaPOAPjuSLBWF-10" value="1,N" style="edgeLabel;html=1;align=center;verticalAlign=middle;resizable=0;points=[];" vertex="1" connectable="0" parent="Akl5kUOaFdj0CedreOdm-24">
          <mxGeometry x="-0.7333" relative="1" as="geometry">
            <mxPoint x="15" y="3" as="offset" />
          </mxGeometry>
        </mxCell>
        <mxCell id="Akl5kUOaFdj0CedreOdm-36" style="edgeStyle=orthogonalEdgeStyle;rounded=1;orthogonalLoop=1;jettySize=auto;html=1;entryX=0.5;entryY=1;entryDx=0;entryDy=0;strokeColor=default;align=center;verticalAlign=middle;fontFamily=Helvetica;fontSize=11;fontColor=default;labelBackgroundColor=default;startArrow=none;startFill=0;endArrow=none;curved=0;" parent="1" source="Akl5kUOaFdj0CedreOdm-1" target="Akl5kUOaFdj0CedreOdm-14" edge="1">
          <mxGeometry relative="1" as="geometry" />
        </mxCell>
        <mxCell id="vYs6L4ZBaPOAPjuSLBWF-3" value="0,n" style="edgeLabel;html=1;align=center;verticalAlign=middle;resizable=0;points=[];" vertex="1" connectable="0" parent="Akl5kUOaFdj0CedreOdm-36">
          <mxGeometry x="-0.6111" y="-1" relative="1" as="geometry">
            <mxPoint x="14" as="offset" />
          </mxGeometry>
        </mxCell>
        <mxCell id="Akl5kUOaFdj0CedreOdm-41" style="edgeStyle=orthogonalEdgeStyle;rounded=0;orthogonalLoop=1;jettySize=auto;html=1;fillColor=#a20025;strokeColor=#6F0000;" parent="1" source="Akl5kUOaFdj0CedreOdm-1" edge="1">
          <mxGeometry relative="1" as="geometry">
            <mxPoint x="-110" y="400" as="targetPoint" />
            <Array as="points">
              <mxPoint x="180" y="450" />
              <mxPoint x="-110" y="450" />
            </Array>
          </mxGeometry>
        </mxCell>
        <mxCell id="Akl5kUOaFdj0CedreOdm-44" value="&lt;span style=&quot;font-size: 8px;&quot;&gt;Ordem de leitura&lt;/span&gt;&lt;div style=&quot;font-size: 8px;&quot;&gt;Entidade + Relacionamento + Cardinalidade + entidade&lt;/div&gt;" style="edgeLabel;html=1;align=center;verticalAlign=middle;resizable=0;points=[];" parent="Akl5kUOaFdj0CedreOdm-41" vertex="1" connectable="0">
          <mxGeometry x="-0.1195" y="-1" relative="1" as="geometry">
            <mxPoint as="offset" />
          </mxGeometry>
        </mxCell>
        <mxCell id="Akl5kUOaFdj0CedreOdm-1" value="Clientes" style="whiteSpace=wrap;html=1;align=center;" parent="1" vertex="1">
          <mxGeometry x="170" y="360" width="110" height="50" as="geometry" />
        </mxCell>
        <mxCell id="Akl5kUOaFdj0CedreOdm-31" style="edgeStyle=orthogonalEdgeStyle;rounded=1;orthogonalLoop=1;jettySize=auto;html=1;entryX=1;entryY=0.5;entryDx=0;entryDy=0;curved=0;startArrow=none;startFill=0;endArrow=none;" parent="1" source="Akl5kUOaFdj0CedreOdm-6" target="Akl5kUOaFdj0CedreOdm-29" edge="1">
          <mxGeometry relative="1" as="geometry" />
        </mxCell>
        <mxCell id="Akl5kUOaFdj0CedreOdm-32" style="edgeStyle=orthogonalEdgeStyle;rounded=1;orthogonalLoop=1;jettySize=auto;html=1;entryX=1;entryY=0.5;entryDx=0;entryDy=0;strokeColor=default;align=center;verticalAlign=middle;fontFamily=Helvetica;fontSize=11;fontColor=default;labelBackgroundColor=default;startArrow=none;startFill=0;endArrow=none;curved=0;" parent="1" source="Akl5kUOaFdj0CedreOdm-6" target="Akl5kUOaFdj0CedreOdm-30" edge="1">
          <mxGeometry relative="1" as="geometry" />
        </mxCell>
        <mxCell id="vYs6L4ZBaPOAPjuSLBWF-5" value="1,1" style="edgeLabel;html=1;align=center;verticalAlign=bottom;resizable=0;points=[];" vertex="1" connectable="0" parent="Akl5kUOaFdj0CedreOdm-32">
          <mxGeometry x="-0.8378" relative="1" as="geometry">
            <mxPoint as="offset" />
          </mxGeometry>
        </mxCell>
        <mxCell id="Akl5kUOaFdj0CedreOdm-6" value="Colaboradores" style="whiteSpace=wrap;html=1;align=center;" parent="1" vertex="1">
          <mxGeometry x="170" y="130" width="110" height="50" as="geometry" />
        </mxCell>
        <mxCell id="Akl5kUOaFdj0CedreOdm-7" value="Departamentos" style="whiteSpace=wrap;html=1;align=center;" parent="1" vertex="1">
          <mxGeometry x="-220" y="130" width="110" height="50" as="geometry" />
        </mxCell>
        <mxCell id="Akl5kUOaFdj0CedreOdm-42" value="Ordem de leitura&lt;div&gt;Entidade + Relacionamento + Cardinalidade + entidade&lt;/div&gt;" style="edgeStyle=orthogonalEdgeStyle;rounded=0;orthogonalLoop=1;jettySize=auto;html=1;fillColor=#60a917;strokeColor=#2D7600;fontSize=8;" parent="1" source="Akl5kUOaFdj0CedreOdm-9" edge="1">
          <mxGeometry relative="1" as="geometry">
            <mxPoint x="150" y="360" as="targetPoint" />
            <Array as="points">
              <mxPoint x="-195" y="320" />
              <mxPoint x="150" y="320" />
            </Array>
          </mxGeometry>
        </mxCell>
        <mxCell id="Akl5kUOaFdj0CedreOdm-9" value="Score de Créditos" style="shape=ext;margin=3;double=1;whiteSpace=wrap;html=1;align=center;" parent="1" vertex="1">
          <mxGeometry x="-260" y="355" width="130" height="60" as="geometry" />
        </mxCell>
        <mxCell id="Akl5kUOaFdj0CedreOdm-27" style="edgeStyle=orthogonalEdgeStyle;rounded=1;orthogonalLoop=1;jettySize=auto;html=1;entryX=0.5;entryY=0;entryDx=0;entryDy=0;strokeColor=default;align=center;verticalAlign=middle;fontFamily=Helvetica;fontSize=11;fontColor=default;labelBackgroundColor=default;startFill=0;endArrow=none;startArrow=none;curved=0;" parent="1" source="Akl5kUOaFdj0CedreOdm-10" target="Akl5kUOaFdj0CedreOdm-26" edge="1">
          <mxGeometry relative="1" as="geometry" />
        </mxCell>
        <mxCell id="vYs6L4ZBaPOAPjuSLBWF-1" value="1,1" style="edgeLabel;html=1;align=center;verticalAlign=middle;resizable=0;points=[];" vertex="1" connectable="0" parent="Akl5kUOaFdj0CedreOdm-27">
          <mxGeometry x="-0.7229" y="1" relative="1" as="geometry">
            <mxPoint x="14" as="offset" />
          </mxGeometry>
        </mxCell>
        <mxCell id="Akl5kUOaFdj0CedreOdm-10" value="Empréstimos" style="shape=ext;margin=3;double=1;whiteSpace=wrap;html=1;align=center;" parent="1" vertex="1">
          <mxGeometry x="530" y="405" width="130" height="60" as="geometry" />
        </mxCell>
        <mxCell id="Akl5kUOaFdj0CedreOdm-11" value="Pagamentos" style="shape=ext;margin=3;double=1;whiteSpace=wrap;html=1;align=center;" parent="1" vertex="1">
          <mxGeometry x="535" y="630" width="130" height="60" as="geometry" />
        </mxCell>
        <mxCell id="Akl5kUOaFdj0CedreOdm-18" style="edgeStyle=orthogonalEdgeStyle;rounded=1;orthogonalLoop=1;jettySize=auto;html=1;entryX=0.5;entryY=0;entryDx=0;entryDy=0;strokeColor=default;align=center;verticalAlign=middle;fontFamily=Helvetica;fontSize=11;fontColor=default;labelBackgroundColor=default;startFill=0;endArrow=none;startArrow=none;curved=0;" parent="1" source="Akl5kUOaFdj0CedreOdm-13" target="Akl5kUOaFdj0CedreOdm-10" edge="1">
          <mxGeometry relative="1" as="geometry" />
        </mxCell>
        <mxCell id="Akl5kUOaFdj0CedreOdm-40" value="0, N" style="edgeLabel;html=1;align=center;verticalAlign=bottom;resizable=0;points=[];" parent="Akl5kUOaFdj0CedreOdm-18" vertex="1" connectable="0">
          <mxGeometry x="0.8716" relative="1" as="geometry">
            <mxPoint x="15" as="offset" />
          </mxGeometry>
        </mxCell>
        <mxCell id="Akl5kUOaFdj0CedreOdm-13" value="Fazer / Feito" style="shape=rhombus;perimeter=rhombusPerimeter;whiteSpace=wrap;html=1;align=center;" parent="1" vertex="1">
          <mxGeometry x="360" y="355" width="120" height="60" as="geometry" />
        </mxCell>
        <mxCell id="Akl5kUOaFdj0CedreOdm-35" style="edgeStyle=orthogonalEdgeStyle;rounded=1;orthogonalLoop=1;jettySize=auto;html=1;entryX=0.5;entryY=1;entryDx=0;entryDy=0;strokeColor=default;align=center;verticalAlign=middle;fontFamily=Helvetica;fontSize=11;fontColor=default;labelBackgroundColor=default;startArrow=none;startFill=0;endArrow=none;curved=0;" parent="1" source="Akl5kUOaFdj0CedreOdm-14" target="Akl5kUOaFdj0CedreOdm-6" edge="1">
          <mxGeometry relative="1" as="geometry" />
        </mxCell>
        <mxCell id="vYs6L4ZBaPOAPjuSLBWF-4" value="1,1" style="edgeLabel;html=1;align=center;verticalAlign=middle;resizable=0;points=[];" vertex="1" connectable="0" parent="Akl5kUOaFdj0CedreOdm-35">
          <mxGeometry x="0.7625" y="1" relative="1" as="geometry">
            <mxPoint x="16" y="3" as="offset" />
          </mxGeometry>
        </mxCell>
        <mxCell id="Akl5kUOaFdj0CedreOdm-14" value="Gerenciar /&lt;div&gt;Gerenciado&lt;/div&gt;" style="shape=rhombus;perimeter=rhombusPerimeter;whiteSpace=wrap;html=1;align=center;" parent="1" vertex="1">
          <mxGeometry x="165" y="240" width="120" height="60" as="geometry" />
        </mxCell>
        <mxCell id="Akl5kUOaFdj0CedreOdm-16" value="Conta" style="shape=ext;margin=3;double=1;whiteSpace=wrap;html=1;align=center;" parent="1" vertex="1">
          <mxGeometry x="160" y="710" width="130" height="60" as="geometry" />
        </mxCell>
        <mxCell id="Akl5kUOaFdj0CedreOdm-22" style="edgeStyle=orthogonalEdgeStyle;rounded=1;orthogonalLoop=1;jettySize=auto;html=1;endArrow=none;startFill=0;strokeColor=default;align=center;verticalAlign=middle;fontFamily=Helvetica;fontSize=11;fontColor=default;labelBackgroundColor=default;startArrow=none;curved=0;" parent="1" source="Akl5kUOaFdj0CedreOdm-19" target="Akl5kUOaFdj0CedreOdm-9" edge="1">
          <mxGeometry relative="1" as="geometry" />
        </mxCell>
        <mxCell id="Akl5kUOaFdj0CedreOdm-37" value="1,N" style="edgeLabel;html=1;align=center;verticalAlign=bottom;resizable=0;points=[];fontColor=light-dark(#000000,#EA6B66);" parent="Akl5kUOaFdj0CedreOdm-22" vertex="1" connectable="0">
          <mxGeometry x="0.7012" relative="1" as="geometry">
            <mxPoint as="offset" />
          </mxGeometry>
        </mxCell>
        <mxCell id="Akl5kUOaFdj0CedreOdm-19" value="Conter /&amp;nbsp;&lt;div&gt;Pertence&lt;/div&gt;" style="shape=rhombus;perimeter=rhombusPerimeter;whiteSpace=wrap;html=1;align=center;" parent="1" vertex="1">
          <mxGeometry x="-40" y="355" width="120" height="60" as="geometry" />
        </mxCell>
        <mxCell id="Akl5kUOaFdj0CedreOdm-25" style="edgeStyle=orthogonalEdgeStyle;rounded=1;orthogonalLoop=1;jettySize=auto;html=1;entryX=0.5;entryY=0;entryDx=0;entryDy=0;strokeColor=default;align=center;verticalAlign=middle;fontFamily=Helvetica;fontSize=11;fontColor=default;labelBackgroundColor=default;startFill=0;endArrow=none;startArrow=none;curved=0;exitX=0.5;exitY=1;exitDx=0;exitDy=0;" parent="1" source="vYs6L4ZBaPOAPjuSLBWF-12" target="Akl5kUOaFdj0CedreOdm-16" edge="1">
          <mxGeometry relative="1" as="geometry">
            <mxPoint x="225" y="525.0000000000001" as="sourcePoint" />
          </mxGeometry>
        </mxCell>
        <mxCell id="vYs6L4ZBaPOAPjuSLBWF-11" value="1,N" style="edgeLabel;html=1;align=center;verticalAlign=middle;resizable=0;points=[];" vertex="1" connectable="0" parent="Akl5kUOaFdj0CedreOdm-25">
          <mxGeometry x="0.3333" y="2" relative="1" as="geometry">
            <mxPoint x="13" y="30" as="offset" />
          </mxGeometry>
        </mxCell>
        <mxCell id="Akl5kUOaFdj0CedreOdm-26" value="Conter /&amp;nbsp;&lt;div&gt;Contido&lt;/div&gt;" style="shape=rhombus;perimeter=rhombusPerimeter;whiteSpace=wrap;html=1;align=center;" parent="1" vertex="1">
          <mxGeometry x="535" y="525" width="120" height="60" as="geometry" />
        </mxCell>
        <mxCell id="Akl5kUOaFdj0CedreOdm-28" style="edgeStyle=orthogonalEdgeStyle;rounded=1;orthogonalLoop=1;jettySize=auto;html=1;entryX=0.465;entryY=0;entryDx=0;entryDy=0;entryPerimeter=0;strokeColor=default;align=center;verticalAlign=middle;fontFamily=Helvetica;fontSize=11;fontColor=default;labelBackgroundColor=default;startFill=0;endArrow=none;startArrow=none;curved=0;" parent="1" source="Akl5kUOaFdj0CedreOdm-26" target="Akl5kUOaFdj0CedreOdm-11" edge="1">
          <mxGeometry relative="1" as="geometry" />
        </mxCell>
        <mxCell id="vYs6L4ZBaPOAPjuSLBWF-2" value="0,N" style="edgeLabel;html=1;align=center;verticalAlign=middle;resizable=0;points=[];" vertex="1" connectable="0" parent="Akl5kUOaFdj0CedreOdm-28">
          <mxGeometry x="0.6279" y="1" relative="1" as="geometry">
            <mxPoint x="14" as="offset" />
          </mxGeometry>
        </mxCell>
        <mxCell id="Akl5kUOaFdj0CedreOdm-33" style="edgeStyle=orthogonalEdgeStyle;rounded=1;orthogonalLoop=1;jettySize=auto;html=1;entryX=1;entryY=0.5;entryDx=0;entryDy=0;strokeColor=default;align=center;verticalAlign=middle;fontFamily=Helvetica;fontSize=11;fontColor=default;labelBackgroundColor=default;startArrow=none;startFill=0;endArrow=none;curved=0;" parent="1" source="Akl5kUOaFdj0CedreOdm-29" target="Akl5kUOaFdj0CedreOdm-7" edge="1">
          <mxGeometry relative="1" as="geometry" />
        </mxCell>
        <mxCell id="Akl5kUOaFdj0CedreOdm-29" value="Gerencia /&lt;div&gt;Gerenciado&lt;/div&gt;" style="shape=rhombus;perimeter=rhombusPerimeter;whiteSpace=wrap;html=1;align=center;" parent="1" vertex="1">
          <mxGeometry x="-45" y="40" width="120" height="60" as="geometry" />
        </mxCell>
        <mxCell id="Akl5kUOaFdj0CedreOdm-34" style="edgeStyle=orthogonalEdgeStyle;rounded=1;orthogonalLoop=1;jettySize=auto;html=1;entryX=1;entryY=0.5;entryDx=0;entryDy=0;strokeColor=default;align=center;verticalAlign=middle;fontFamily=Helvetica;fontSize=11;fontColor=default;labelBackgroundColor=default;startArrow=none;startFill=0;endArrow=none;curved=0;" parent="1" source="Akl5kUOaFdj0CedreOdm-30" target="Akl5kUOaFdj0CedreOdm-7" edge="1">
          <mxGeometry relative="1" as="geometry" />
        </mxCell>
        <mxCell id="vYs6L4ZBaPOAPjuSLBWF-6" value="0,1" style="edgeLabel;html=1;align=center;verticalAlign=bottom;resizable=0;points=[];" vertex="1" connectable="0" parent="Akl5kUOaFdj0CedreOdm-34">
          <mxGeometry x="0.8625" relative="1" as="geometry">
            <mxPoint as="offset" />
          </mxGeometry>
        </mxCell>
        <mxCell id="Akl5kUOaFdj0CedreOdm-30" value="Contem /&lt;div&gt;Pertence&lt;/div&gt;" style="shape=rhombus;perimeter=rhombusPerimeter;whiteSpace=wrap;html=1;align=center;" parent="1" vertex="1">
          <mxGeometry x="-40" y="200" width="120" height="60" as="geometry" />
        </mxCell>
        <mxCell id="vYs6L4ZBaPOAPjuSLBWF-7" value="2,N" style="edgeLabel;html=1;align=center;verticalAlign=bottom;resizable=0;points=[];" vertex="1" connectable="0" parent="1">
          <mxGeometry x="158.00172413793092" y="174" as="geometry" />
        </mxCell>
        <mxCell id="vYs6L4ZBaPOAPjuSLBWF-8" value="1,1" style="edgeLabel;html=1;align=center;verticalAlign=bottom;resizable=0;points=[];" vertex="1" connectable="0" parent="1">
          <mxGeometry x="-99.00241379310349" y="174" as="geometry" />
        </mxCell>
        <mxCell id="vYs6L4ZBaPOAPjuSLBWF-12" value="Possui /&lt;div&gt;Pertence&lt;/div&gt;" style="shape=associativeEntity;whiteSpace=wrap;html=1;align=center;" vertex="1" parent="1">
          <mxGeometry x="155" y="530" width="140" height="60" as="geometry" />
        </mxCell>
        <mxCell id="vYs6L4ZBaPOAPjuSLBWF-13" value="ClienteConta" style="edgeLabel;html=1;align=center;verticalAlign=middle;resizable=0;points=[];" vertex="1" connectable="0" parent="1">
          <mxGeometry x="270" y="450" as="geometry">
            <mxPoint x="-92" y="64" as="offset" />
          </mxGeometry>
        </mxCell>
        <mxCell id="vYs6L4ZBaPOAPjuSLBWF-14" value="1,1" style="edgeLabel;html=1;align=center;verticalAlign=middle;resizable=0;points=[];" vertex="1" connectable="0" parent="1">
          <mxGeometry x="238" y="519" as="geometry" />
        </mxCell>
        <mxCell id="vYs6L4ZBaPOAPjuSLBWF-15" value="1,1" style="edgeLabel;html=1;align=center;verticalAlign=middle;resizable=0;points=[];" vertex="1" connectable="0" parent="1">
          <mxGeometry x="251" y="533" as="geometry">
            <mxPoint x="-12" y="69" as="offset" />
          </mxGeometry>
        </mxCell>
      </root>
    </mxGraphModel>
  </diagram>
</mxfile>
